<?xml version="1.0" standalone="no"?>
<!DOCTYPE svg PUBLIC "-//W3C//DTD SVG 20010904//EN"
 "http://www.w3.org/TR/2001/REC-SVG-20010904/DTD/svg10.dtd">
<svg version="1.0" xmlns="http://www.w3.org/2000/svg"
 width="64.000000pt" height="64.000000pt" viewBox="0 0 64.000000 64.000000"
 preserveAspectRatio="xMidYMid meet">
<metadata>
Created by potrace 1.11, written by Peter Selinger 2001-2013
</metadata>
<g transform="translate(0.000000,64.000000) scale(0.100000,-0.100000)"
fill="#000000" stroke="none">
<path d="M241 624 c-68 -18 -109 -43 -156 -95 -58 -65 -80 -121 -79 -209 0
-181 133 -314 314 -315 95 0 168 33 234 106 90 100 106 239 41 358 -69 127
-216 191 -354 155z m161 -84 c84 -33 130 -91 154 -192 14 -61 14 -61 9 -13 -3
28 -16 71 -28 97 -23 46 -23 48 -6 64 21 19 34 13 56 -29 25 -49 40 -117 36
-167 -4 -57 -32 -136 -55 -157 -17 -15 -20 -15 -38 2 -19 18 -19 18 0 45 11
16 22 41 24 57 2 15 1 22 -1 16 -3 -9 -35 -13 -114 -13 l-110 0 17 33 c9 17
34 62 55 99 22 36 39 69 39 72 0 3 -20 6 -44 6 l-44 0 -65 -112 c-35 -62 -71
-127 -80 -144 l-16 -31 150 1 c83 0 153 -2 155 -6 2 -3 -12 -20 -31 -36 -114
-93 -287 -53 -357 82 -21 41 -30 147 -15 163 5 4 52 8 104 8 l96 0 24 38 23
37 -22 1 c-13 0 -58 1 -100 1 -43 0 -78 4 -78 8 0 12 79 65 114 77 39 12 106
9 148 -7z"/>
</g>
</svg>
